<svg xmlns="http://www.w3.org/2000/svg" version="1.1" xmlns:xlink="http://www.w3.org/1999/xlink" xmlns:svgjs="http://svgjs.dev/svgjs" viewBox="0 0 1422 800"><defs><linearGradient x1="50%" y1="0%" x2="50%" y2="100%" id="oooscillate-grad"><stop stop-color="hsl(206, 75%, 49%)" stop-opacity="1" offset="0%"></stop><stop stop-color="hsl(331, 90%, 56%)" stop-opacity="1" offset="100%"></stop></linearGradient></defs><g stroke-width="2" stroke="url(#oooscillate-grad)" fill="none" stroke-linecap="round"><path d="M 0 1485 Q 355.5 -100 711 400 Q 1066.5 900 1422 1485" opacity="0.43"></path><path d="M 0 1452 Q 355.5 -100 711 400 Q 1066.5 900 1422 1452" opacity="0.37"></path><path d="M 0 1419 Q 355.5 -100 711 400 Q 1066.5 900 1422 1419" opacity="0.70"></path><path d="M 0 1386 Q 355.5 -100 711 400 Q 1066.5 900 1422 1386" opacity="0.75"></path><path d="M 0 1353 Q 355.5 -100 711 400 Q 1066.5 900 1422 1353" opacity="0.44"></path><path d="M 0 1320 Q 355.5 -100 711 400 Q 1066.5 900 1422 1320" opacity="0.33"></path><path d="M 0 1287 Q 355.5 -100 711 400 Q 1066.5 900 1422 1287" opacity="0.99"></path><path d="M 0 1254 Q 355.5 -100 711 400 Q 1066.5 900 1422 1254" opacity="0.77"></path><path d="M 0 1221 Q 355.5 -100 711 400 Q 1066.5 900 1422 1221" opacity="0.19"></path><path d="M 0 1188 Q 355.5 -100 711 400 Q 1066.5 900 1422 1188" opacity="0.84"></path><path d="M 0 1155 Q 355.5 -100 711 400 Q 1066.5 900 1422 1155" opacity="0.91"></path><path d="M 0 1122 Q 355.5 -100 711 400 Q 1066.5 900 1422 1122" opacity="0.46"></path><path d="M 0 1089 Q 355.5 -100 711 400 Q 1066.5 900 1422 1089" opacity="0.22"></path><path d="M 0 1056 Q 355.5 -100 711 400 Q 1066.5 900 1422 1056" opacity="0.97"></path><path d="M 0 1023 Q 355.5 -100 711 400 Q 1066.5 900 1422 1023" opacity="0.32"></path><path d="M 0 990 Q 355.5 -100 711 400 Q 1066.5 900 1422 990" opacity="0.53"></path><path d="M 0 957 Q 355.5 -100 711 400 Q 1066.5 900 1422 957" opacity="0.22"></path><path d="M 0 924 Q 355.5 -100 711 400 Q 1066.5 900 1422 924" opacity="0.36"></path><path d="M 0 891 Q 355.5 -100 711 400 Q 1066.5 900 1422 891" opacity="0.62"></path><path d="M 0 858 Q 355.5 -100 711 400 Q 1066.5 900 1422 858" opacity="0.80"></path><path d="M 0 825 Q 355.5 -100 711 400 Q 1066.5 900 1422 825" opacity="0.21"></path><path d="M 0 792 Q 355.5 -100 711 400 Q 1066.5 900 1422 792" opacity="0.53"></path><path d="M 0 759 Q 355.5 -100 711 400 Q 1066.5 900 1422 759" opacity="0.10"></path><path d="M 0 726 Q 355.5 -100 711 400 Q 1066.5 900 1422 726" opacity="0.18"></path><path d="M 0 693 Q 355.5 -100 711 400 Q 1066.5 900 1422 693" opacity="0.55"></path><path d="M 0 660 Q 355.5 -100 711 400 Q 1066.5 900 1422 660" opacity="0.07"></path><path d="M 0 627 Q 355.5 -100 711 400 Q 1066.5 900 1422 627" opacity="0.73"></path><path d="M 0 594 Q 355.5 -100 711 400 Q 1066.5 900 1422 594" opacity="0.92"></path><path d="M 0 561 Q 355.5 -100 711 400 Q 1066.5 900 1422 561" opacity="0.59"></path><path d="M 0 528 Q 355.5 -100 711 400 Q 1066.5 900 1422 528" opacity="0.64"></path><path d="M 0 495 Q 355.5 -100 711 400 Q 1066.5 900 1422 495" opacity="0.59"></path><path d="M 0 462 Q 355.5 -100 711 400 Q 1066.5 900 1422 462" opacity="0.16"></path><path d="M 0 429 Q 355.5 -100 711 400 Q 1066.5 900 1422 429" opacity="0.46"></path><path d="M 0 396 Q 355.5 -100 711 400 Q 1066.5 900 1422 396" opacity="0.74"></path><path d="M 0 363 Q 355.5 -100 711 400 Q 1066.5 900 1422 363" opacity="0.43"></path><path d="M 0 330 Q 355.5 -100 711 400 Q 1066.5 900 1422 330" opacity="0.40"></path><path d="M 0 297 Q 355.5 -100 711 400 Q 1066.5 900 1422 297" opacity="0.60"></path><path d="M 0 264 Q 355.5 -100 711 400 Q 1066.5 900 1422 264" opacity="0.53"></path><path d="M 0 231 Q 355.5 -100 711 400 Q 1066.5 900 1422 231" opacity="0.90"></path><path d="M 0 198 Q 355.5 -100 711 400 Q 1066.5 900 1422 198" opacity="0.57"></path><path d="M 0 165 Q 355.5 -100 711 400 Q 1066.5 900 1422 165" opacity="0.99"></path><path d="M 0 132 Q 355.5 -100 711 400 Q 1066.5 900 1422 132" opacity="0.84"></path><path d="M 0 99 Q 355.5 -100 711 400 Q 1066.5 900 1422 99" opacity="0.85"></path><path d="M 0 66 Q 355.5 -100 711 400 Q 1066.5 900 1422 66" opacity="0.41"></path></g></svg>