<?xml version="1.0" encoding="UTF-8"?>
<!DOCTYPE svg PUBLIC "-//W3C//DTD SVG 1.1//EN" "http://www.w3.org/Graphics/SVG/1.1/DTD/svg11.dtd">
<!-- Creator: CorelDRAW X6 -->
<svg xmlns="http://www.w3.org/2000/svg" xml:space="preserve" width="875px" height="750px" version="1.1" style="shape-rendering:geometricPrecision; text-rendering:geometricPrecision; image-rendering:optimizeQuality; fill-rule:evenodd; clip-rule:evenodd"
viewBox="0 0 874 749"
 xmlns:xlink="http://www.w3.org/1999/xlink">
 <defs>
  <style type="text/css">
   <![CDATA[
    .str0 {stroke:red;stroke-width:1.28067}
    .fil2 {fill:none;fill-rule:nonzero}
    .fil0 {fill:red;fill-rule:nonzero}
    .fil1 {fill:white;fill-rule:nonzero}
   ]]>
  </style>
   <clipPath id="id0" style="clip-rule:nonzero">
    <path d="M802 587c-2,0 -1,0 -3,-1 -3,-2 -3,0 -7,0 -4,0 -3,-2 -5,2 -2,3 -3,3 -7,3 -2,0 -3,2 -5,2 -2,1 -3,0 -5,0 0,0 -7,2 -5,0 3,-5 -3,-3 -6,-2 -2,1 -4,1 -6,0 -3,-2 -8,-6 -8,-10 -7,2 -4,-4 -4,-8 -1,-8 -7,-2 -8,2 -3,1 -3,-3 -7,-4 -3,-1 -5,1 -7,2 0,-1 1,-2 1,-2 0,0 -1,0 -1,0 -1,0 -5,2 -6,3 -2,1 -2,4 -5,4 -2,1 -5,0 -7,1 -2,1 -4,3 -6,4 1,4 2,7 0,11 -1,2 -1,3 -2,5 0,0 -1,0 -1,0 1,0 3,0 2,0 2,-2 4,-5 6,-6 9,-3 13,12 14,18 0,3 1,6 3,8 2,2 4,1 6,2 1,1 1,3 3,4 2,2 10,-1 13,-3 2,-1 2,-1 3,-3 1,-2 2,-2 3,-3 3,-2 5,-8 8,-11 1,-1 2,-3 3,-5 0,-1 1,-5 3,-4 3,2 -2,9 -2,10 2,1 2,-2 4,-3 1,-1 3,-1 4,-2 3,-1 5,-2 8,-3 0,0 1,1 1,1 -1,2 -4,2 -5,3 -2,2 -2,3 -3,5 -1,-1 -1,-4 -3,-3 -1,0 -4,7 -5,9 -2,3 -3,6 -5,8 0,2 -2,3 -2,5 0,2 1,2 1,3 0,2 0,4 1,6 2,4 4,3 8,5 3,1 4,4 7,0 -1,-3 1,-5 2,-7 2,-3 3,-6 3,-9 0,-3 -1,-7 0,-9 1,-3 3,-1 5,-2 3,-1 1,-3 3,-6 1,-2 3,-3 5,-4 2,-2 4,-5 6,-7 2,-3 3,-6 5,-9 1,-1 3,-2 4,-3 1,-2 1,-3 3,-4 -1,-2 -2,-1 -4,-1zm-26 -115c6,-10 14,-14 14,-27 -4,-5 -13,-15 -20,-17 -2,0 -6,-2 -7,0 -2,1 -1,5 -2,5 0,0 -2,1 -2,1 -1,-3 -3,-8 -7,-7 -5,0 -4,5 -6,9 -1,3 -3,7 -4,10 -2,3 -5,4 -7,8 0,0 -1,0 -1,0 0,-5 2,-7 4,-11 2,-3 2,-6 3,-9 1,-3 5,-6 6,-9 3,-8 -9,-9 -11,-1 -3,-3 -9,-3 -12,-2 -2,0 -10,5 -10,1 0,-2 -1,-3 -1,-5 -10,0 -17,-1 -24,-9 1,-1 1,-3 1,-4 -2,-4 -8,-5 -11,-7 10,-5 -16,-11 -15,-8 -1,-4 -6,-10 -11,-10 -1,0 -7,-8 -8,-9 -3,-3 -9,-4 -11,-8 0,2 -1,4 -1,6 0,-2 0,-3 0,-5 1,4 2,9 7,10 0,1 0,4 -1,5 6,-1 8,3 4,8 3,2 5,2 9,1 7,8 -6,16 13,15 0,1 1,3 1,3 2,14 4,17 12,26 3,3 7,8 7,14 0,9 -4,6 -10,10 -1,-1 -1,-2 -1,-2 -1,1 -3,2 -4,4 -5,-1 -11,-3 -17,-2 1,1 3,5 4,6 -3,0 -6,2 -8,2 2,1 3,3 5,4 -1,1 -2,5 -3,6 1,1 2,2 3,2 0,2 0,4 0,6 6,4 14,1 17,9 -4,2 -7,5 -4,9 4,-1 7,-4 9,-6 0,4 3,7 6,11 8,-3 15,5 25,0 -2,-4 -5,-8 -6,-13 1,-1 4,-2 5,-2 5,10 29,-6 34,-9 6,-3 35,-28 41,-17 -3,3 -5,6 -7,10zm-224 93c0,0 0,0 0,0 -2,5 -1,15 -10,9 -2,-1 -3,-5 -5,-7 -2,-2 -5,-3 -7,-4 -1,-4 -5,-6 -8,-9 -6,-5 -7,-12 -9,-18 -3,-7 -2,-14 -3,-21 -1,-6 -6,-5 -12,-5 -5,0 -10,1 -15,1 -3,1 -5,2 -7,0 -2,-1 -2,-4 -4,-5 -3,-1 -5,0 -7,0 -2,0 -2,-3 -4,-3 -2,-1 -6,1 -8,0 -3,-1 -3,-5 -5,-7 -3,-4 -6,-7 -11,-8 -2,0 -4,1 -6,0 -2,-1 -2,-2 -4,-3 -4,-2 -10,-2 -14,-1 -1,0 -10,4 -10,1 0,-7 -1,-16 -3,-23 -3,-10 -8,-4 -15,-6 -7,-2 -5,-14 -4,-19 3,-17 10,-36 20,-50 3,-5 17,-6 10,-14 -4,-5 -17,-6 -22,-6 0,-9 16,-1 20,1 5,2 6,3 10,-2 3,-4 4,-6 10,-4 3,-4 6,-10 8,-15 1,-3 2,-6 -1,-8 -3,-2 -5,1 -8,1 -7,0 -13,-8 -19,-11 4,2 11,-1 15,1 5,2 7,7 13,4 5,-3 6,-9 8,-14 -1,-1 -7,-4 -8,-3 2,-2 10,-6 11,-1 8,1 10,-4 15,-9 5,-4 11,-8 9,-15 0,-1 -14,-18 -13,-18 11,-1 5,-12 0,-16 -6,2 -10,-6 -16,-1 -2,-2 -4,-1 -6,-2 -1,3 -1,6 1,9 1,0 2,0 3,0 2,6 0,20 -1,26 -7,28 -24,-1 -16,-11 -4,-3 -7,-8 -12,-11 0,6 4,14 0,18 -1,0 -3,-1 -4,-2 0,-8 -3,-20 -13,-17 -2,-7 1,-15 0,-22 -1,-4 -5,-14 -7,-18 -4,0 -8,-2 -11,-2 0,5 -4,12 -5,17 -4,16 8,17 13,31 3,9 3,6 -4,15 -5,6 -4,9 -7,17 0,2 -4,-3 -5,-3 -3,-5 -2,-10 2,-14 -2,2 -7,-2 -8,-3 -5,-2 -10,0 -8,7 4,-1 5,1 8,3 -5,7 -8,1 -13,0 -5,-1 -12,2 -17,1 -10,-2 -31,-29 -40,-10 -1,1 -1,18 -1,18 -3,0 -4,-1 -6,-3 7,-22 -33,-20 -43,-30 1,-3 2,-3 4,-3 6,4 7,-6 4,-10 -3,-4 -10,-5 -15,-5 -6,-12 -20,-18 -27,-29 -6,-1 -7,4 -12,2 4,-9 6,-18 -4,-7 0,-7 2,-16 -3,-22 4,5 -25,-2 -25,-2 -5,2 -33,5 -18,-6 0,0 -1,-1 -1,-1 -4,2 -9,2 -13,2 1,2 1,4 2,5 -14,-3 -13,-19 -18,-29 -15,15 -105,121 -114,127 3,1 7,2 10,3 1,0 1,4 1,4 0,6 0,12 0,18 0,3 0,6 0,8 0,2 0,3 1,3 1,0 2,0 4,0 2,0 4,4 4,0 2,0 2,-1 3,-2 1,-2 0,-1 2,-1 2,0 4,1 7,0 2,1 3,6 2,8 0,0 0,0 -1,0 -1,2 -1,7 -1,10 0,1 0,3 0,5 1,4 3,6 2,10 0,1 0,3 -1,4 -1,1 -2,1 -2,3 0,2 1,6 2,8 0,3 0,6 -1,8 0,0 -1,1 -1,1 0,1 0,1 0,2 0,1 1,2 -2,3 -1,2 1,7 2,9 2,4 5,7 7,11 3,6 -2,10 -4,15 -4,7 -11,10 -13,17 -1,3 -5,13 -1,16 2,1 4,-2 6,-2 7,-1 1,4 0,6 -1,2 -1,3 -1,5 0,2 -1,4 -1,6 0,2 1,3 0,5 -1,2 -3,2 -1,4 2,3 7,4 10,4 -1,4 -5,5 -8,6 -4,2 -5,5 -7,8 0,1 -1,3 -1,4 0,2 1,6 2,8 4,0 9,3 9,7 0,2 -1,2 1,4 1,1 3,2 5,3 2,2 7,5 6,9 -1,2 -2,3 -2,5 0,2 1,3 2,5 3,3 5,9 6,13 2,4 0,5 4,8 5,3 135,68 304,72 1,0 21,2 21,0 0,-3 0,-5 1,-8 5,1 2,6 4,9 2,5 4,4 9,5 4,1 10,-1 14,0 5,2 5,5 11,5 4,0 2,1 5,3 4,2 5,-2 8,-2 3,-1 5,3 7,3 4,1 13,0 16,-3 3,-3 6,-8 8,-12 3,-6 7,-1 12,-1 5,0 12,-1 13,6 1,3 9,11 12,6 2,0 4,0 6,1 1,1 1,3 2,4 3,-1 4,5 1,6 1,2 1,5 2,7 1,2 3,3 5,4 3,2 5,5 9,5 4,1 6,-2 10,-3 2,0 5,-1 7,0 10,1 24,-1 32,6 3,3 6,9 3,13 -4,4 -10,1 -14,-1 -1,4 2,6 2,9 0,4 -5,7 -4,11 0,3 2,4 2,7 0,3 0,5 -1,7 -1,1 -2,2 -3,3 -2,4 -3,9 -6,13 -3,5 -4,12 5,8 6,-3 7,-11 14,-14 5,-2 10,-5 15,-7 4,-2 14,-2 15,-7 2,-6 -10,-3 -13,-4 1,-4 3,-7 5,-10 5,-6 12,-8 20,-9 6,-1 4,-2 6,-6 2,-3 6,-3 8,0 2,-5 4,-9 6,-14 4,-6 8,-9 13,-12 -1,-3 -2,-6 -4,-9 -8,-3 -13,4 -19,7 -10,-2 -21,-3 -32,-6 -29,-9 -31,-61 -37,-92zm92 100c1,0 2,-1 3,-1 -1,0 -2,1 -3,1zm109 -85l0 0c0,0 0,0 0,0 0,0 0,0 0,0l0 0zm28 -6l0 0c-3,-1 -5,3 -7,4 -1,1 -3,1 -4,2 -2,1 -3,2 -5,2 -1,0 -2,0 -3,0 -1,0 -1,1 -2,1 -1,-1 -3,-1 -4,-2 -1,0 -3,-6 -3,-3 0,2 -1,4 -1,5 1,1 3,1 4,2 1,0 1,1 2,1 1,0 2,-1 2,-1 2,0 2,1 4,1 1,0 5,0 6,-1 1,-1 0,-2 2,-2 1,0 2,0 2,2 1,0 4,1 5,0 3,-1 1,-2 1,-3 -1,-2 -1,-2 0,-5 0,-2 2,-3 2,-4zm28 -11l0 0c-2,-1 -3,1 -5,1 -1,0 -2,0 -2,0 -1,0 -2,1 -2,1 -3,0 -1,-3 -1,-5 0,-2 -1,-4 -3,-6 -4,-3 -4,5 -3,6 0,1 0,3 0,4 0,3 0,5 -2,7 1,3 3,10 7,9 3,-1 9,-5 10,-8 1,-2 2,-5 3,-7 -1,-1 -2,-2 -2,-4zm41 -72l0 0c0,-4 6,-10 3,-13 -3,2 -5,5 -9,6 -1,-2 -1,-2 -3,-3 1,-4 -1,-8 -5,-9 -5,-1 -6,3 -9,6 -2,3 -5,4 -8,5 -8,4 -3,-2 -8,-4 -4,-2 -4,4 -7,6 -3,2 -1,2 -4,-1 -2,-4 -3,-11 -3,-15 0,-3 2,-17 -4,-14l0 -1c-13,15 -2,42 0,59 1,8 -5,6 -6,12 3,-1 5,-3 8,-3 0,4 -3,12 0,15 5,5 10,-3 12,-6 4,-5 9,-4 14,-8 4,-3 5,-6 11,-8 4,-2 8,-6 13,-6 -3,3 -6,17 1,13 4,-3 3,-18 4,-23 0,-2 2,-3 2,-5 0,-1 -3,-3 -3,-4zm19 -2l0 0c-4,0 -3,5 -7,6 3,-1 -3,-10 -5,-10 -2,0 0,13 0,13 0,-1 -4,0 -4,3 0,1 4,5 4,7 1,2 0,7 4,5 0,0 5,-12 5,-2 10,4 3,-17 3,-21zm-839 53l0 0c-2,-5 0,-11 -3,-15 -3,-5 -7,-7 -10,-11 -3,-3 -3,-10 -8,-11 -7,-2 -3,6 -1,9 -6,2 0,9 2,11 1,2 4,3 4,6 1,3 -2,3 -2,6 0,5 4,7 7,10 3,4 1,9 4,13 2,4 8,10 11,12 3,2 2,-10 2,-11 0,-7 -4,-11 -7,-18zm471 -336l0 0c0,0 0,0 0,0 0,0 0,0 0,0zm-37 -11l0 0c-3,3 0,8 -1,11 -3,0 -4,-3 -5,-5 -4,2 -1,6 -5,9 -3,-6 2,-11 -2,-18 -2,-3 -3,-9 -7,-11 -6,-2 -8,5 -10,5 -8,0 -7,11 -6,17 1,5 1,4 0,10 4,4 8,9 6,14 -8,-5 -10,-13 -12,-21 -1,-6 -2,-5 0,-11 1,-4 3,-8 4,-13 -9,3 -15,5 -18,15 -2,5 -5,29 -1,32 5,4 12,-1 15,7 -4,1 -7,-1 -12,0 0,3 2,11 5,12 2,1 11,-3 10,-4 4,10 34,7 39,1 14,4 1,-7 2,-10 3,1 7,-1 9,1 2,1 2,5 4,7 4,4 11,5 15,10 -2,3 -5,6 -2,10 3,-2 3,-7 6,-9 3,1 5,3 7,5 1,0 2,0 2,0 4,8 12,8 17,14 4,4 4,5 2,10 -1,3 -6,7 0,9 0,5 -7,8 -7,15 4,0 8,0 11,4 -2,3 -6,6 -9,7 0,2 -2,3 -2,5 -7,-2 -14,-3 -16,6 -4,0 -5,4 -4,7 3,0 5,2 4,4 6,1 8,2 13,-2 3,-2 6,-10 10,-5 4,-9 13,0 18,3 1,1 1,3 3,4 2,1 4,-1 6,-1 4,1 5,2 5,8 2,1 5,1 8,1 2,0 5,-2 7,-2 4,1 6,4 9,5 5,2 8,-1 12,-2 5,-1 11,0 16,0 -2,-14 -27,-11 -35,-22 5,-11 19,2 26,3 14,1 10,-12 2,-10 1,0 2,-1 4,-1 -4,-2 -3,-5 -6,-8 -2,-3 -6,-2 -7,-6 -6,2 -2,-4 -6,-5 -3,-1 -6,2 -9,1 -4,-2 -6,-13 -12,-3 0,-5 -4,-5 -6,-8 7,0 -1,-12 11,-10 2,0 4,3 4,3 2,0 5,-2 7,-3 1,3 12,14 15,12 2,-1 3,-3 3,-6 -7,-5 -1,-6 1,-10 2,-5 0,-13 0,-19 -3,-3 -8,-5 -14,-5 -3,0 -6,0 -9,0 -3,0 -5,-3 -8,-3 -4,-1 -9,3 -13,2 -3,-1 -3,-4 -5,-5 -5,-2 -11,4 -16,-1 3,-1 5,-8 2,-9 4,2 8,-2 4,-5 -3,2 -7,2 -10,2 -4,-5 5,-6 5,-10 0,-2 -6,-1 -8,-4 -1,6 -3,6 -8,6 -1,-4 5,-6 3,-10 -2,-4 -9,-2 -11,0 -1,-1 -2,-1 -3,-3 -3,2 -5,5 -8,5 0,-4 5,-15 -4,-13 0,1 1,1 1,2 0,0 -2,1 -2,1 0,2 -1,4 -2,6 -3,-1 -4,-6 -7,-7 -2,0 -6,2 -7,2 3,-6 2,-8 -4,-11 -1,0 -6,-2 -6,-2 -1,-1 -2,-1 -3,-2 -4,2 -6,-1 -9,2zm-124 61l0 0c3,-7 -8,-11 -12,-15 -5,-6 -4,-10 -5,-17 -1,-5 -3,-9 -3,-13 0,-4 1,-8 0,-12 -4,-4 -12,-17 -14,-3 0,3 1,24 -5,22 -5,-2 2,-21 -3,-23 -3,-1 -9,4 -10,6 -1,0 -3,0 -4,0 0,0 0,0 0,0 0,-5 6,-14 -4,-12 -2,0 -6,6 -9,5 -3,-2 2,-4 3,-5 9,-13 -10,-4 -15,-3 -4,0 -6,-2 -7,4 -1,0 -1,0 -2,0 -1,7 -10,7 -6,14 3,6 11,4 16,7 -6,1 -21,-2 -17,8 3,8 13,6 20,8 3,1 18,8 11,12 -5,3 -16,-8 -22,-8 -14,-1 -7,12 -5,20 7,-1 12,7 12,13 0,1 0,2 1,4 8,1 16,5 24,2 4,-1 7,-1 11,-2 4,-1 6,-5 9,-5 3,0 8,6 11,8 0,0 0,1 0,1 5,4 11,1 16,3 1,-3 1,-6 2,-9 -4,1 -6,-2 -5,-6 4,0 12,2 14,-2zm-125 -68l0 0c1,3 -2,7 -1,10 3,9 10,-5 12,2 7,-1 8,-5 12,-10 3,-4 8,-6 12,-8 5,-2 12,0 17,-3 4,-3 5,-11 2,-15 -3,-5 -10,-5 -15,-8 -1,0 -1,0 -2,0 -1,0 -1,-7 -2,-8 -2,-2 -4,0 -6,-1 -3,-1 -6,-4 -9,-3 -4,1 -3,7 -4,10 -2,7 -9,11 -14,15 -4,4 -9,5 -7,11 1,3 3,4 4,7zm147 76l0 0c-2,-2 -5,-9 -8,-4 -2,2 -2,5 -2,8 -7,1 -7,7 -2,10 3,2 11,5 15,4 4,-1 6,-4 3,-7 1,-4 -5,-8 -7,-11zm-77 16l0 0c2,1 6,-2 8,-3 2,-1 4,0 7,0 1,-4 6,-2 7,-6 -2,-2 -4,-2 -6,-1l3 0c-1,0 -27,4 -18,10zm70 -50l0 0c1,-1 1,-4 3,-5 1,-1 4,-1 5,-2 5,-4 4,-10 3,-16 -1,0 -1,0 -2,0 1,-4 -2,-6 -6,-7 0,-5 7,-8 5,-14 -3,-1 -5,2 -7,2 -3,0 -3,-5 -6,-3 -3,-1 -7,2 -7,5 3,1 2,3 0,4 1,0 5,7 4,9 -3,5 -6,-1 -7,-4 -7,9 5,18 9,26 2,5 3,9 7,5zm-30 -42l0 0c-1,-4 -7,-6 -9,-3 -2,3 3,8 5,11 1,1 5,-6 5,-8zm64 17l0 0c4,-1 11,-19 7,-22 -4,-3 -10,3 -13,-3 -2,-5 -12,10 -12,12 -1,4 0,11 0,16 5,1 3,9 7,12 5,-4 2,-8 3,-13 2,-6 4,-1 8,-2zm2 -155l0 0c3,2 8,-1 12,-3 -1,4 -4,12 2,12 3,0 9,-4 11,-5 2,-2 8,-9 9,-4 1,6 -9,6 -10,10 -1,3 5,9 6,14 -6,-2 -7,-8 -13,-9 -8,-2 -6,5 -3,9 2,2 4,3 5,5 1,3 1,5 3,7 2,1 6,0 7,3 0,3 -4,3 -6,3 -8,1 -12,4 -12,13 2,3 4,0 6,1 4,2 1,1 3,4 3,4 4,-1 7,1 5,2 1,6 -3,5 -3,0 -4,-1 -7,-3 0,-1 0,-1 0,-2 -6,-2 -6,3 -7,7 11,4 -9,10 0,19 4,0 8,0 11,0 3,0 5,2 7,-3 5,2 9,-3 14,-3 0,2 0,4 1,6 3,-2 18,-15 8,-18 -1,2 -3,3 -5,3 0,-1 0,-1 0,-2 -4,-3 -11,0 -12,-6 5,0 7,4 12,0 5,-4 0,-6 1,-11 3,0 11,-4 4,-5 -1,-4 5,-1 4,-7 -1,0 -2,-1 -4,-1 2,-3 3,-5 -1,-8 -2,0 -3,0 -4,-1 0,-1 0,-1 -1,-1 0,-2 -1,-2 -4,-2 2,-2 5,-2 6,-4 1,-1 3,-6 3,-8 0,0 7,-2 8,-2 3,-3 1,-8 -2,-9 2,-3 4,-5 4,-9 1,-3 1,-6 2,-10 0,0 0,0 0,0 1,-1 1,-10 1,-12 -5,1 -5,9 -9,11 0,-4 0,-8 -1,-12 1,0 2,0 4,1 4,-5 8,-14 2,-19 -5,-4 -10,4 -14,1 -2,-2 1,-3 -3,-4 -2,-1 -4,0 -6,1 -2,1 -8,3 -9,4 -2,2 -1,2 -3,5 -1,2 -4,3 -6,2 -2,3 -3,5 -4,8 -2,4 -2,4 -8,2 -1,1 -2,2 -2,3 1,1 2,3 3,4 0,1 -1,1 -1,1 -4,-2 -4,1 -7,2 -2,1 -5,2 -7,3 0,1 0,2 0,3 6,0 2,8 6,10zm-10 39l0 0c0,1 -2,1 -3,2 0,1 0,6 1,8 2,0 3,0 4,-1 2,2 1,6 4,7 3,1 7,-2 8,-4 4,-4 14,-14 12,-20 -1,-3 -5,-6 -7,-7 -2,-2 -5,-3 -7,-5 -4,-3 -8,-25 -16,-21l2 0c-2,2 -6,7 -6,11 0,5 5,7 1,13 -9,-1 -3,7 -2,12 5,1 14,-3 8,5zm30 83l0 0c3,1 8,0 11,-1 5,-1 8,-5 12,-6 3,0 4,3 7,1 4,-2 5,-8 3,-12 -1,-2 2,-4 -1,-7 -2,-2 -4,-2 -7,-2 -4,0 -8,0 -12,1 -1,1 -2,3 -4,3 -1,0 -3,0 -4,0 -4,2 -4,3 -8,3 -7,0 -4,-3 -8,-5 -3,-2 -7,2 -8,-3 0,-3 4,-5 3,-7 0,0 -6,-4 -6,-4 -3,-1 -5,2 -9,2 0,-3 0,-4 -3,-4l-1 0c-5,-4 -10,-5 -10,3 3,2 7,7 10,8 3,1 4,-2 7,1 5,7 0,26 10,29 5,2 6,-2 10,-4 3,1 3,4 6,5zm-143 -44l0 0c2,-2 1,-4 2,-5 1,-1 3,0 4,-1 1,-1 2,-9 5,-8 4,1 -3,8 2,8 2,0 6,-6 7,-7 1,-3 3,-7 4,-11 -2,-1 -3,0 -5,0 0,0 -3,-1 -4,-1 -3,0 -6,1 -9,3l1 0c-2,2 -5,5 -8,6 -3,2 -9,1 -11,3 -6,6 9,7 11,13zm11 4l0 0c0,1 1,1 2,1 0,0 -2,2 -3,2 0,1 1,2 1,2 -3,1 -7,0 -6,5 0,2 4,4 5,5 3,2 3,2 6,1 2,0 4,-5 4,1 2,1 14,-1 11,4 -1,3 -13,4 -15,3 -1,1 -1,2 0,3 6,3 10,2 16,-1 5,-2 7,-1 12,-1 5,1 9,1 13,-3 3,-2 7,-10 5,-13 -2,-3 -9,-2 -12,-5 0,0 -1,0 -1,0 0,-2 1,-10 0,-12 -7,-7 -5,21 -5,21 -3,2 -8,-2 -9,-4 -2,-4 -1,-12 -8,-11 4,-11 -13,-6 -16,1zm34 -20l0 0c3,-2 8,-16 0,-12l0 0c-4,2 -8,2 -8,7 -1,9 5,3 9,6zm8 -22l0 0c-2,-4 -11,0 -13,2 2,6 16,3 13,-2zm129 95l0 0c1,2 2,4 4,6 4,7 3,4 9,0 3,-2 4,0 8,-1 8,-1 4,-7 0,-10 -4,-3 -11,-2 -16,-1 -4,1 -5,3 -4,5zm-99 -80l0 0c4,4 4,10 5,3 1,-5 1,-12 -1,-17 -2,-5 -7,-8 -12,-8l-2 -1c0,0 1,0 0,0 -2,4 -4,12 -1,16 3,4 9,3 12,7zm14 -1l0 0c1,3 -3,5 1,9 2,-1 3,-2 4,-4 2,1 3,0 4,0 0,-5 -5,-19 -11,-14l0 0c-3,4 1,7 2,10zm15 15l0 0c5,-4 -2,-7 -5,-7 -3,0 -6,1 -6,4 3,0 4,1 6,1 2,0 3,3 5,1zm14 -4l0 0 0 1c-2,-1 -4,1 -5,3 2,1 4,2 7,2 1,-2 0,-5 -2,-6zm-39 21l0 0c-2,0 -3,-3 -5,-3l0 1c-3,4 3,7 2,11 -4,0 -5,-6 -7,-8 0,3 0,5 -1,8 -1,2 -4,4 -5,6 0,7 10,-3 12,0 2,3 -9,14 3,13 7,-1 7,-9 8,-14 1,-3 2,-10 0,-13 -1,-2 -2,-2 -4,-3 -1,0 -2,1 -3,1zm20 32l0 0c6,0 8,-9 4,-12 -7,-6 -15,12 -4,12zm119 103l0 0c-1,3 1,11 1,14 4,3 12,0 13,-5 1,-4 -1,-4 -2,-7 -1,-3 1,-8 -4,-7l1 0c-4,0 -8,0 -9,4zm-5 81l0 0c-2,-3 -7,-1 -10,-1 -1,0 -1,0 -2,0 0,-7 -4,-6 -7,-11 -3,0 -4,-4 -7,-6 -3,-2 -7,-3 -10,-4 -3,11 -7,-5 -10,-5 -3,0 -5,10 -2,11 1,0 1,0 2,1 0,5 1,11 0,16 -1,5 -5,8 -7,13 4,1 8,-3 11,-2 6,1 0,8 6,10 4,-2 8,-10 10,-14 5,-9 4,-5 12,-2 3,1 7,2 10,2 2,-3 6,-5 4,-9zm-22 24l0 0c-2,4 0,12 6,11 3,-1 7,-9 8,-12 1,-4 0,-7 -4,-3l0 0c-4,0 -8,0 -10,4zm34 0l0 0c-7,1 -1,12 2,15 5,-2 4,-15 -2,-15zm11 -22l0 0c0,0 -1,-1 -1,-1l0 0c-1,0 -2,0 -4,1 1,6 8,5 5,1 0,0 0,-1 0,-1l1 0c0,0 -1,0 -1,-1z"/>
   </clipPath>
 </defs>
 <g id="Layer_x0020_1">
  <metadata id="CorelCorpID_0Corel-Layer"/>
  <g>
  </g>
  <g style="clip-path:url(#id0)">
   <g>
    <g id="_396255912">
     <g>
      <polygon class="fil0" points="1,851 874,851 874,1 1,1 "/>
      <polygon class="fil1" points="219,1 655,1 655,851 219,851 "/>
     </g>
     <path class="fil0" d="M437 249l-30 55c-3,6 -9,5 -15,2l-22 -11 16 85c3,16 -7,16 -13,9l-38 -42 -6 21c-1,3 -4,6 -8,5l-48 -10 12 45c3,10 5,14 -3,17l-17 8 82 66c3,3 5,7 4,11l-7 24c28,-3 53,-8 82,-11 2,0 7,4 7,7l-4 86 14 0 -2 -86c0,-3 4,-7 6,-7 28,3 53,8 82,11l-7 -24c-1,-4 0,-9 4,-11l82 -66 -17 -8c-7,-3 -5,-7 -3,-17l12 -45 -48 10c-5,1 -8,-2 -8,-5l-6 -21 -38 42c-5,7 -16,7 -13,-9l16 -85 -22 11c-6,3 -12,4 -15,-2l-30 -55z"/>
    </g>
   </g>
  </g>
  <path class="fil2 str0" d="M802 587c-2,0 -1,0 -3,-1 -3,-2 -3,0 -7,0 -4,0 -3,-2 -5,2 -2,3 -3,3 -7,3 -2,0 -3,2 -5,2 -2,1 -3,0 -5,0 0,0 -7,2 -5,0 3,-5 -3,-3 -6,-2 -2,1 -4,1 -6,0 -3,-2 -8,-6 -8,-10 -7,2 -4,-4 -4,-8 -1,-8 -7,-2 -8,2 -3,1 -3,-3 -7,-4 -3,-1 -5,1 -7,2 0,-1 1,-2 1,-2 0,0 -1,0 -1,0 -1,0 -5,2 -6,3 -2,1 -2,4 -5,4 -2,1 -5,0 -7,1 -2,1 -4,3 -6,4 1,4 2,7 0,11 -1,2 -1,3 -2,5 0,0 -1,0 -1,0 1,0 3,0 2,0 2,-2 4,-5 6,-6 9,-3 13,12 14,18 0,3 1,6 3,8 2,2 4,1 6,2 1,1 1,3 3,4 2,2 10,-1 13,-3 2,-1 2,-1 3,-3 1,-2 2,-2 3,-3 3,-2 5,-8 8,-11 1,-1 2,-3 3,-5 0,-1 1,-5 3,-4 3,2 -2,9 -2,10 2,1 2,-2 4,-3 1,-1 3,-1 4,-2 3,-1 5,-2 8,-3 0,0 1,1 1,1 -1,2 -4,2 -5,3 -2,2 -2,3 -3,5 -1,-1 -1,-4 -3,-3 -1,0 -4,7 -5,9 -2,3 -3,6 -5,8 0,2 -2,3 -2,5 0,2 1,2 1,3 0,2 0,4 1,6 2,4 4,3 8,5 3,1 4,4 7,0 -1,-3 1,-5 2,-7 2,-3 3,-6 3,-9 0,-3 -1,-7 0,-9 1,-3 3,-1 5,-2 3,-1 1,-3 3,-6 1,-2 3,-3 5,-4 2,-2 4,-5 6,-7 2,-3 3,-6 5,-9 1,-1 3,-2 4,-3 1,-2 1,-3 3,-4 -1,-2 -2,-1 -4,-1zm-26 -115c6,-10 14,-14 14,-27 -4,-5 -13,-15 -20,-17 -2,0 -6,-2 -7,0 -2,1 -1,5 -2,5 0,0 -2,1 -2,1 -1,-3 -3,-8 -7,-7 -5,0 -4,5 -6,9 -1,3 -3,7 -4,10 -2,3 -5,4 -7,8 0,0 -1,0 -1,0 0,-5 2,-7 4,-11 2,-3 2,-6 3,-9 1,-3 5,-6 6,-9 3,-8 -9,-9 -11,-1 -3,-3 -9,-3 -12,-2 -2,0 -10,5 -10,1 0,-2 -1,-3 -1,-5 -10,0 -17,-1 -24,-9 1,-1 1,-3 1,-4 -2,-4 -8,-5 -11,-7 10,-5 -16,-11 -15,-8 -1,-4 -6,-10 -11,-10 -1,0 -7,-8 -8,-9 -3,-3 -9,-4 -11,-8 0,2 -1,4 -1,6 0,-2 0,-3 0,-5 1,4 2,9 7,10 0,1 0,4 -1,5 6,-1 8,3 4,8 3,2 5,2 9,1 7,8 -6,16 13,15 0,1 1,3 1,3 2,14 4,17 12,26 3,3 7,8 7,14 0,9 -4,6 -10,10 -1,-1 -1,-2 -1,-2 -1,1 -3,2 -4,4 -5,-1 -11,-3 -17,-2 1,1 3,5 4,6 -3,0 -6,2 -8,2 2,1 3,3 5,4 -1,1 -2,5 -3,6 1,1 2,2 3,2 0,2 0,4 0,6 6,4 14,1 17,9 -4,2 -7,5 -4,9 4,-1 7,-4 9,-6 0,4 3,7 6,11 8,-3 15,5 25,0 -2,-4 -5,-8 -6,-13 1,-1 4,-2 5,-2 5,10 29,-6 34,-9 6,-3 35,-28 41,-17 -3,3 -5,6 -7,10zm-224 93c0,0 0,0 0,0 -2,5 -1,15 -10,9 -2,-1 -3,-5 -5,-7 -2,-2 -5,-3 -7,-4 -1,-4 -5,-6 -8,-9 -6,-5 -7,-12 -9,-18 -3,-7 -2,-14 -3,-21 -1,-6 -6,-5 -12,-5 -5,0 -10,1 -15,1 -3,1 -5,2 -7,0 -2,-1 -2,-4 -4,-5 -3,-1 -5,0 -7,0 -2,0 -2,-3 -4,-3 -2,-1 -6,1 -8,0 -3,-1 -3,-5 -5,-7 -3,-4 -6,-7 -11,-8 -2,0 -4,1 -6,0 -2,-1 -2,-2 -4,-3 -4,-2 -10,-2 -14,-1 -1,0 -10,4 -10,1 0,-7 -1,-16 -3,-23 -3,-10 -8,-4 -15,-6 -7,-2 -5,-14 -4,-19 3,-17 10,-36 20,-50 3,-5 17,-6 10,-14 -4,-5 -17,-6 -22,-6 0,-9 16,-1 20,1 5,2 6,3 10,-2 3,-4 4,-6 10,-4 3,-4 6,-10 8,-15 1,-3 2,-6 -1,-8 -3,-2 -5,1 -8,1 -7,0 -13,-8 -19,-11 4,2 11,-1 15,1 5,2 7,7 13,4 5,-3 6,-9 8,-14 -1,-1 -7,-4 -8,-3 2,-2 10,-6 11,-1 8,1 10,-4 15,-9 5,-4 11,-8 9,-15 0,-1 -14,-18 -13,-18 11,-1 5,-12 0,-16 -6,2 -10,-6 -16,-1 -2,-2 -4,-1 -6,-2 -1,3 -1,6 1,9 1,0 2,0 3,0 2,6 0,20 -1,26 -7,28 -24,-1 -16,-11 -4,-3 -7,-8 -12,-11 0,6 4,14 0,18 -1,0 -3,-1 -4,-2 0,-8 -3,-20 -13,-17 -2,-7 1,-15 0,-22 -1,-4 -5,-14 -7,-18 -4,0 -8,-2 -11,-2 0,5 -4,12 -5,17 -4,16 8,17 13,31 3,9 3,6 -4,15 -5,6 -4,9 -7,17 0,2 -4,-3 -5,-3 -3,-5 -2,-10 2,-14 -2,2 -7,-2 -8,-3 -5,-2 -10,0 -8,7 4,-1 5,1 8,3 -5,7 -8,1 -13,0 -5,-1 -12,2 -17,1 -10,-2 -31,-29 -40,-10 -1,1 -1,18 -1,18 -3,0 -4,-1 -6,-3 7,-22 -33,-20 -43,-30 1,-3 2,-3 4,-3 6,4 7,-6 4,-10 -3,-4 -10,-5 -15,-5 -6,-12 -20,-18 -27,-29 -6,-1 -7,4 -12,2 4,-9 6,-18 -4,-7 0,-7 2,-16 -3,-22 4,5 -25,-2 -25,-2 -5,2 -33,5 -18,-6 0,0 -1,-1 -1,-1 -4,2 -9,2 -13,2 1,2 1,4 2,5 -14,-3 -13,-19 -18,-29 -15,15 -105,121 -114,127 3,1 7,2 10,3 1,0 1,4 1,4 0,6 0,12 0,18 0,3 0,6 0,8 0,2 0,3 1,3 1,0 2,0 4,0 2,0 4,4 4,0 2,0 2,-1 3,-2 1,-2 0,-1 2,-1 2,0 4,1 7,0 2,1 3,6 2,8 0,0 0,0 -1,0 -1,2 -1,7 -1,10 0,1 0,3 0,5 1,4 3,6 2,10 0,1 0,3 -1,4 -1,1 -2,1 -2,3 0,2 1,6 2,8 0,3 0,6 -1,8 0,0 -1,1 -1,1 0,1 0,1 0,2 0,1 1,2 -2,3 -1,2 1,7 2,9 2,4 5,7 7,11 3,6 -2,10 -4,15 -4,7 -11,10 -13,17 -1,3 -5,13 -1,16 2,1 4,-2 6,-2 7,-1 1,4 0,6 -1,2 -1,3 -1,5 0,2 -1,4 -1,6 0,2 1,3 0,5 -1,2 -3,2 -1,4 2,3 7,4 10,4 -1,4 -5,5 -8,6 -4,2 -5,5 -7,8 0,1 -1,3 -1,4 0,2 1,6 2,8 4,0 9,3 9,7 0,2 -1,2 1,4 1,1 3,2 5,3 2,2 7,5 6,9 -1,2 -2,3 -2,5 0,2 1,3 2,5 3,3 5,9 6,13 2,4 0,5 4,8 5,3 135,68 304,72 1,0 21,2 21,0 0,-3 0,-5 1,-8 5,1 2,6 4,9 2,5 4,4 9,5 4,1 10,-1 14,0 5,2 5,5 11,5 4,0 2,1 5,3 4,2 5,-2 8,-2 3,-1 5,3 7,3 4,1 13,0 16,-3 3,-3 6,-8 8,-12 3,-6 7,-1 12,-1 5,0 12,-1 13,6 1,3 9,11 12,6 2,0 4,0 6,1 1,1 1,3 2,4 3,-1 4,5 1,6 1,2 1,5 2,7 1,2 3,3 5,4 3,2 5,5 9,5 4,1 6,-2 10,-3 2,0 5,-1 7,0 10,1 24,-1 32,6 3,3 6,9 3,13 -4,4 -10,1 -14,-1 -1,4 2,6 2,9 0,4 -5,7 -4,11 0,3 2,4 2,7 0,3 0,5 -1,7 -1,1 -2,2 -3,3 -2,4 -3,9 -6,13 -3,5 -4,12 5,8 6,-3 7,-11 14,-14 5,-2 10,-5 15,-7 4,-2 14,-2 15,-7 2,-6 -10,-3 -13,-4 1,-4 3,-7 5,-10 5,-6 12,-8 20,-9 6,-1 4,-2 6,-6 2,-3 6,-3 8,0 2,-5 4,-9 6,-14 4,-6 8,-9 13,-12 -1,-3 -2,-6 -4,-9 -8,-3 -13,4 -19,7 -10,-2 -21,-3 -32,-6 -29,-9 -31,-61 -37,-92zm92 100c1,0 2,-1 3,-1 -1,0 -2,1 -3,1zm109 -85l0 0c0,0 0,0 0,0 0,0 0,0 0,0l0 0zm28 -6l0 0c-3,-1 -5,3 -7,4 -1,1 -3,1 -4,2 -2,1 -3,2 -5,2 -1,0 -2,0 -3,0 -1,0 -1,1 -2,1 -1,-1 -3,-1 -4,-2 -1,0 -3,-6 -3,-3 0,2 -1,4 -1,5 1,1 3,1 4,2 1,0 1,1 2,1 1,0 2,-1 2,-1 2,0 2,1 4,1 1,0 5,0 6,-1 1,-1 0,-2 2,-2 1,0 2,0 2,2 1,0 4,1 5,0 3,-1 1,-2 1,-3 -1,-2 -1,-2 0,-5 0,-2 2,-3 2,-4zm28 -11l0 0c-2,-1 -3,1 -5,1 -1,0 -2,0 -2,0 -1,0 -2,1 -2,1 -3,0 -1,-3 -1,-5 0,-2 -1,-4 -3,-6 -4,-3 -4,5 -3,6 0,1 0,3 0,4 0,3 0,5 -2,7 1,3 3,10 7,9 3,-1 9,-5 10,-8 1,-2 2,-5 3,-7 -1,-1 -2,-2 -2,-4zm41 -72l0 0c0,-4 6,-10 3,-13 -3,2 -5,5 -9,6 -1,-2 -1,-2 -3,-3 1,-4 -1,-8 -5,-9 -5,-1 -6,3 -9,6 -2,3 -5,4 -8,5 -8,4 -3,-2 -8,-4 -4,-2 -4,4 -7,6 -3,2 -1,2 -4,-1 -2,-4 -3,-11 -3,-15 0,-3 2,-17 -4,-14l0 -1c-13,15 -2,42 0,59 1,8 -5,6 -6,12 3,-1 5,-3 8,-3 0,4 -3,12 0,15 5,5 10,-3 12,-6 4,-5 9,-4 14,-8 4,-3 5,-6 11,-8 4,-2 8,-6 13,-6 -3,3 -6,17 1,13 4,-3 3,-18 4,-23 0,-2 2,-3 2,-5 0,-1 -3,-3 -3,-4zm19 -2l0 0c-4,0 -3,5 -7,6 3,-1 -3,-10 -5,-10 -2,0 0,13 0,13 0,-1 -4,0 -4,3 0,1 4,5 4,7 1,2 0,7 4,5 0,0 5,-12 5,-2 10,4 3,-17 3,-21zm-839 53l0 0c-2,-5 0,-11 -3,-15 -3,-5 -7,-7 -10,-11 -3,-3 -3,-10 -8,-11 -7,-2 -3,6 -1,9 -6,2 0,9 2,11 1,2 4,3 4,6 1,3 -2,3 -2,6 0,5 4,7 7,10 3,4 1,9 4,13 2,4 8,10 11,12 3,2 2,-10 2,-11 0,-7 -4,-11 -7,-18zm471 -336l0 0c0,0 0,0 0,0 0,0 0,0 0,0zm-37 -11l0 0c-3,3 0,8 -1,11 -3,0 -4,-3 -5,-5 -4,2 -1,6 -5,9 -3,-6 2,-11 -2,-18 -2,-3 -3,-9 -7,-11 -6,-2 -8,5 -10,5 -8,0 -7,11 -6,17 1,5 1,4 0,10 4,4 8,9 6,14 -8,-5 -10,-13 -12,-21 -1,-6 -2,-5 0,-11 1,-4 3,-8 4,-13 -9,3 -15,5 -18,15 -2,5 -5,29 -1,32 5,4 12,-1 15,7 -4,1 -7,-1 -12,0 0,3 2,11 5,12 2,1 11,-3 10,-4 4,10 34,7 39,1 14,4 1,-7 2,-10 3,1 7,-1 9,1 2,1 2,5 4,7 4,4 11,5 15,10 -2,3 -5,6 -2,10 3,-2 3,-7 6,-9 3,1 5,3 7,5 1,0 2,0 2,0 4,8 12,8 17,14 4,4 4,5 2,10 -1,3 -6,7 0,9 0,5 -7,8 -7,15 4,0 8,0 11,4 -2,3 -6,6 -9,7 0,2 -2,3 -2,5 -7,-2 -14,-3 -16,6 -4,0 -5,4 -4,7 3,0 5,2 4,4 6,1 8,2 13,-2 3,-2 6,-10 10,-5 4,-9 13,0 18,3 1,1 1,3 3,4 2,1 4,-1 6,-1 4,1 5,2 5,8 2,1 5,1 8,1 2,0 5,-2 7,-2 4,1 6,4 9,5 5,2 8,-1 12,-2 5,-1 11,0 16,0 -2,-14 -27,-11 -35,-22 5,-11 19,2 26,3 14,1 10,-12 2,-10 1,0 2,-1 4,-1 -4,-2 -3,-5 -6,-8 -2,-3 -6,-2 -7,-6 -6,2 -2,-4 -6,-5 -3,-1 -6,2 -9,1 -4,-2 -6,-13 -12,-3 0,-5 -4,-5 -6,-8 7,0 -1,-12 11,-10 2,0 4,3 4,3 2,0 5,-2 7,-3 1,3 12,14 15,12 2,-1 3,-3 3,-6 -7,-5 -1,-6 1,-10 2,-5 0,-13 0,-19 -3,-3 -8,-5 -14,-5 -3,0 -6,0 -9,0 -3,0 -5,-3 -8,-3 -4,-1 -9,3 -13,2 -3,-1 -3,-4 -5,-5 -5,-2 -11,4 -16,-1 3,-1 5,-8 2,-9 4,2 8,-2 4,-5 -3,2 -7,2 -10,2 -4,-5 5,-6 5,-10 0,-2 -6,-1 -8,-4 -1,6 -3,6 -8,6 -1,-4 5,-6 3,-10 -2,-4 -9,-2 -11,0 -1,-1 -2,-1 -3,-3 -3,2 -5,5 -8,5 0,-4 5,-15 -4,-13 0,1 1,1 1,2 0,0 -2,1 -2,1 0,2 -1,4 -2,6 -3,-1 -4,-6 -7,-7 -2,0 -6,2 -7,2 3,-6 2,-8 -4,-11 -1,0 -6,-2 -6,-2 -1,-1 -2,-1 -3,-2 -4,2 -6,-1 -9,2zm-124 61l0 0c3,-7 -8,-11 -12,-15 -5,-6 -4,-10 -5,-17 -1,-5 -3,-9 -3,-13 0,-4 1,-8 0,-12 -4,-4 -12,-17 -14,-3 0,3 1,24 -5,22 -5,-2 2,-21 -3,-23 -3,-1 -9,4 -10,6 -1,0 -3,0 -4,0 0,0 0,0 0,0 0,-5 6,-14 -4,-12 -2,0 -6,6 -9,5 -3,-2 2,-4 3,-5 9,-13 -10,-4 -15,-3 -4,0 -6,-2 -7,4 -1,0 -1,0 -2,0 -1,7 -10,7 -6,14 3,6 11,4 16,7 -6,1 -21,-2 -17,8 3,8 13,6 20,8 3,1 18,8 11,12 -5,3 -16,-8 -22,-8 -14,-1 -7,12 -5,20 7,-1 12,7 12,13 0,1 0,2 1,4 8,1 16,5 24,2 4,-1 7,-1 11,-2 4,-1 6,-5 9,-5 3,0 8,6 11,8 0,0 0,1 0,1 5,4 11,1 16,3 1,-3 1,-6 2,-9 -4,1 -6,-2 -5,-6 4,0 12,2 14,-2zm-125 -68l0 0c1,3 -2,7 -1,10 3,9 10,-5 12,2 7,-1 8,-5 12,-10 3,-4 8,-6 12,-8 5,-2 12,0 17,-3 4,-3 5,-11 2,-15 -3,-5 -10,-5 -15,-8 -1,0 -1,0 -2,0 -1,0 -1,-7 -2,-8 -2,-2 -4,0 -6,-1 -3,-1 -6,-4 -9,-3 -4,1 -3,7 -4,10 -2,7 -9,11 -14,15 -4,4 -9,5 -7,11 1,3 3,4 4,7zm147 76l0 0c-2,-2 -5,-9 -8,-4 -2,2 -2,5 -2,8 -7,1 -7,7 -2,10 3,2 11,5 15,4 4,-1 6,-4 3,-7 1,-4 -5,-8 -7,-11zm-77 16l0 0c2,1 6,-2 8,-3 2,-1 4,0 7,0 1,-4 6,-2 7,-6 -2,-2 -4,-2 -6,-1l3 0c-1,0 -27,4 -18,10zm70 -50l0 0c1,-1 1,-4 3,-5 1,-1 4,-1 5,-2 5,-4 4,-10 3,-16 -1,0 -1,0 -2,0 1,-4 -2,-6 -6,-7 0,-5 7,-8 5,-14 -3,-1 -5,2 -7,2 -3,0 -3,-5 -6,-3 -3,-1 -7,2 -7,5 3,1 2,3 0,4 1,0 5,7 4,9 -3,5 -6,-1 -7,-4 -7,9 5,18 9,26 2,5 3,9 7,5zm-30 -42l0 0c-1,-4 -7,-6 -9,-3 -2,3 3,8 5,11 1,1 5,-6 5,-8zm64 17l0 0c4,-1 11,-19 7,-22 -4,-3 -10,3 -13,-3 -2,-5 -12,10 -12,12 -1,4 0,11 0,16 5,1 3,9 7,12 5,-4 2,-8 3,-13 2,-6 4,-1 8,-2zm2 -155l0 0c3,2 8,-1 12,-3 -1,4 -4,12 2,12 3,0 9,-4 11,-5 2,-2 8,-9 9,-4 1,6 -9,6 -10,10 -1,3 5,9 6,14 -6,-2 -7,-8 -13,-9 -8,-2 -6,5 -3,9 2,2 4,3 5,5 1,3 1,5 3,7 2,1 6,0 7,3 0,3 -4,3 -6,3 -8,1 -12,4 -12,13 2,3 4,0 6,1 4,2 1,1 3,4 3,4 4,-1 7,1 5,2 1,6 -3,5 -3,0 -4,-1 -7,-3 0,-1 0,-1 0,-2 -6,-2 -6,3 -7,7 11,4 -9,10 0,19 4,0 8,0 11,0 3,0 5,2 7,-3 5,2 9,-3 14,-3 0,2 0,4 1,6 3,-2 18,-15 8,-18 -1,2 -3,3 -5,3 0,-1 0,-1 0,-2 -4,-3 -11,0 -12,-6 5,0 7,4 12,0 5,-4 0,-6 1,-11 3,0 11,-4 4,-5 -1,-4 5,-1 4,-7 -1,0 -2,-1 -4,-1 2,-3 3,-5 -1,-8 -2,0 -3,0 -4,-1 0,-1 0,-1 -1,-1 0,-2 -1,-2 -4,-2 2,-2 5,-2 6,-4 1,-1 3,-6 3,-8 0,0 7,-2 8,-2 3,-3 1,-8 -2,-9 2,-3 4,-5 4,-9 1,-3 1,-6 2,-10 0,0 0,0 0,0 1,-1 1,-10 1,-12 -5,1 -5,9 -9,11 0,-4 0,-8 -1,-12 1,0 2,0 4,1 4,-5 8,-14 2,-19 -5,-4 -10,4 -14,1 -2,-2 1,-3 -3,-4 -2,-1 -4,0 -6,1 -2,1 -8,3 -9,4 -2,2 -1,2 -3,5 -1,2 -4,3 -6,2 -2,3 -3,5 -4,8 -2,4 -2,4 -8,2 -1,1 -2,2 -2,3 1,1 2,3 3,4 0,1 -1,1 -1,1 -4,-2 -4,1 -7,2 -2,1 -5,2 -7,3 0,1 0,2 0,3 6,0 2,8 6,10zm-10 39l0 0c0,1 -2,1 -3,2 0,1 0,6 1,8 2,0 3,0 4,-1 2,2 1,6 4,7 3,1 7,-2 8,-4 4,-4 14,-14 12,-20 -1,-3 -5,-6 -7,-7 -2,-2 -5,-3 -7,-5 -4,-3 -8,-25 -16,-21l2 0c-2,2 -6,7 -6,11 0,5 5,7 1,13 -9,-1 -3,7 -2,12 5,1 14,-3 8,5zm30 83l0 0c3,1 8,0 11,-1 5,-1 8,-5 12,-6 3,0 4,3 7,1 4,-2 5,-8 3,-12 -1,-2 2,-4 -1,-7 -2,-2 -4,-2 -7,-2 -4,0 -8,0 -12,1 -1,1 -2,3 -4,3 -1,0 -3,0 -4,0 -4,2 -4,3 -8,3 -7,0 -4,-3 -8,-5 -3,-2 -7,2 -8,-3 0,-3 4,-5 3,-7 0,0 -6,-4 -6,-4 -3,-1 -5,2 -9,2 0,-3 0,-4 -3,-4l-1 0c-5,-4 -10,-5 -10,3 3,2 7,7 10,8 3,1 4,-2 7,1 5,7 0,26 10,29 5,2 6,-2 10,-4 3,1 3,4 6,5zm-143 -44l0 0c2,-2 1,-4 2,-5 1,-1 3,0 4,-1 1,-1 2,-9 5,-8 4,1 -3,8 2,8 2,0 6,-6 7,-7 1,-3 3,-7 4,-11 -2,-1 -3,0 -5,0 0,0 -3,-1 -4,-1 -3,0 -6,1 -9,3l1 0c-2,2 -5,5 -8,6 -3,2 -9,1 -11,3 -6,6 9,7 11,13zm11 4l0 0c0,1 1,1 2,1 0,0 -2,2 -3,2 0,1 1,2 1,2 -3,1 -7,0 -6,5 0,2 4,4 5,5 3,2 3,2 6,1 2,0 4,-5 4,1 2,1 14,-1 11,4 -1,3 -13,4 -15,3 -1,1 -1,2 0,3 6,3 10,2 16,-1 5,-2 7,-1 12,-1 5,1 9,1 13,-3 3,-2 7,-10 5,-13 -2,-3 -9,-2 -12,-5 0,0 -1,0 -1,0 0,-2 1,-10 0,-12 -7,-7 -5,21 -5,21 -3,2 -8,-2 -9,-4 -2,-4 -1,-12 -8,-11 4,-11 -13,-6 -16,1zm34 -20l0 0c3,-2 8,-16 0,-12l0 0c-4,2 -8,2 -8,7 -1,9 5,3 9,6zm8 -22l0 0c-2,-4 -11,0 -13,2 2,6 16,3 13,-2zm129 95l0 0c1,2 2,4 4,6 4,7 3,4 9,0 3,-2 4,0 8,-1 8,-1 4,-7 0,-10 -4,-3 -11,-2 -16,-1 -4,1 -5,3 -4,5zm-99 -80l0 0c4,4 4,10 5,3 1,-5 1,-12 -1,-17 -2,-5 -7,-8 -12,-8l-2 -1c0,0 1,0 0,0 -2,4 -4,12 -1,16 3,4 9,3 12,7zm14 -1l0 0c1,3 -3,5 1,9 2,-1 3,-2 4,-4 2,1 3,0 4,0 0,-5 -5,-19 -11,-14l0 0c-3,4 1,7 2,10zm15 15l0 0c5,-4 -2,-7 -5,-7 -3,0 -6,1 -6,4 3,0 4,1 6,1 2,0 3,3 5,1zm14 -4l0 0 0 1c-2,-1 -4,1 -5,3 2,1 4,2 7,2 1,-2 0,-5 -2,-6zm-39 21l0 0c-2,0 -3,-3 -5,-3l0 1c-3,4 3,7 2,11 -4,0 -5,-6 -7,-8 0,3 0,5 -1,8 -1,2 -4,4 -5,6 0,7 10,-3 12,0 2,3 -9,14 3,13 7,-1 7,-9 8,-14 1,-3 2,-10 0,-13 -1,-2 -2,-2 -4,-3 -1,0 -2,1 -3,1zm20 32l0 0c6,0 8,-9 4,-12 -7,-6 -15,12 -4,12zm119 103l0 0c-1,3 1,11 1,14 4,3 12,0 13,-5 1,-4 -1,-4 -2,-7 -1,-3 1,-8 -4,-7l1 0c-4,0 -8,0 -9,4zm-5 81l0 0c-2,-3 -7,-1 -10,-1 -1,0 -1,0 -2,0 0,-7 -4,-6 -7,-11 -3,0 -4,-4 -7,-6 -3,-2 -7,-3 -10,-4 -3,11 -7,-5 -10,-5 -3,0 -5,10 -2,11 1,0 1,0 2,1 0,5 1,11 0,16 -1,5 -5,8 -7,13 4,1 8,-3 11,-2 6,1 0,8 6,10 4,-2 8,-10 10,-14 5,-9 4,-5 12,-2 3,1 7,2 10,2 2,-3 6,-5 4,-9zm-22 24l0 0c-2,4 0,12 6,11 3,-1 7,-9 8,-12 1,-4 0,-7 -4,-3l0 0c-4,0 -8,0 -10,4zm34 0l0 0c-7,1 -1,12 2,15 5,-2 4,-15 -2,-15zm11 -22l0 0c0,0 -1,-1 -1,-1l0 0c-1,0 -2,0 -4,1 1,6 8,5 5,1 0,0 0,-1 0,-1l1 0c0,0 -1,0 -1,-1z"/>
 </g>
</svg>
